<svg width="23" height="25" viewBox="0 0 23 25" fill="none" xmlns="http://www.w3.org/2000/svg">
<path d="M21.3872 4.18105C20.9313 3.26934 1.1013 3.04139 1.1013 4.18105C1.1013 5.3207 0.873371 22.8714 1.1013 23.3273C1.32923 23.7832 20.9313 23.5552 21.3872 23.3273C21.8431 23.0994 21.8431 5.09275 21.3872 4.18105Z" stroke="#8A5E45" stroke-width="1.5"/>
<path d="M1.10156 8.28442H21.6154" stroke="#8A5E45" stroke-width="1.5" stroke-linecap="round"/>
<path d="M5 1.40942V5.40942" stroke="#8A5E45" stroke-width="1.5" stroke-linecap="round"/>
<path d="M8.80267 19C7.78567 19 7.17367 18.37 7.17367 18.361C7.17367 18.352 8.18167 17.335 8.18167 17.344C8.18167 17.353 8.37067 17.587 8.80267 17.587C9.23467 17.587 9.53167 17.2 9.53167 16.822C9.53167 16.444 9.27067 16.003 8.79367 16.003C8.31667 16.003 8.18167 16.246 8.18167 16.246L7.17367 15.229L8.25367 13.672H6.85867V12.25H10.9897L9.29767 14.653C9.29767 14.653 10.9447 15.067 10.9447 16.813C10.9447 18.163 9.81967 19 8.80267 19ZM14.0956 19C12.8716 19 11.8906 18.019 11.8906 16.795V14.455C11.8906 13.24 12.8716 12.25 14.0956 12.25C15.3106 12.25 16.3096 13.24 16.3096 14.464V16.795C16.3096 18.019 15.3196 19 14.0956 19ZM14.0956 17.578C14.5366 17.578 14.8876 17.227 14.8876 16.786V14.473C14.8876 14.032 14.5366 13.681 14.0956 13.681C13.6546 13.681 13.3036 14.032 13.3036 14.464V16.786C13.3036 17.227 13.6546 17.578 14.0956 17.578Z" fill="#8A5E45"/>
<path d="M17.5 1.40942V5.40942" stroke="#8A5E45" stroke-width="1.5" stroke-linecap="round"/>
</svg>
