<svg width="244" height="129" viewBox="0 0 244 129" fill="none" xmlns="http://www.w3.org/2000/svg">
<ellipse cx="122" cy="114" rx="122" ry="15" fill="#F4F4F4"/>
<path d="M144.605 50.56C144.765 50.48 144.972 50.4467 145.225 50.46C145.478 50.46 145.705 50.5067 145.905 50.6C146.052 50.6667 146.305 50.86 146.665 51.18C147.038 51.4867 147.272 51.7067 147.365 51.84C147.498 52.04 147.552 52.38 147.525 52.86C147.512 53.34 147.425 53.78 147.265 54.18C147.052 54.66 146.572 54.9733 145.825 55.12C145.092 55.2533 144.458 55.1467 143.925 54.8C143.498 54.5067 143.238 54.0733 143.145 53.5C143.052 52.9267 143.138 52.36 143.405 51.8C143.685 51.2267 144.085 50.8133 144.605 50.56ZM145.745 52.1C145.465 51.9133 145.238 51.8533 145.065 51.92C144.905 51.9867 144.758 52.1933 144.625 52.54C144.332 53.2733 144.445 53.68 144.965 53.76C145.298 53.8133 145.598 53.74 145.865 53.54C146.145 53.34 146.285 53.0933 146.285 52.8C146.285 52.5733 146.105 52.34 145.745 52.1ZM149.545 57.12C150.238 57.0267 150.672 57.1533 150.845 57.5C151.018 57.8733 150.845 58.1733 150.325 58.4C150.258 58.4133 150.052 58.44 149.705 58.48C148.985 58.5333 148.245 58.6 147.485 58.68C146.458 58.7867 145.312 58.86 144.045 58.9C142.792 58.9267 142.085 58.9 141.925 58.82C141.725 58.7 141.605 58.5467 141.565 58.36C141.525 58.16 141.578 57.98 141.725 57.82C141.818 57.7267 141.912 57.6733 142.005 57.66C142.098 57.6467 142.398 57.64 142.905 57.64C144.452 57.64 146.098 57.5333 147.845 57.32C147.925 57.3067 148.065 57.2933 148.265 57.28C148.478 57.2533 148.625 57.2333 148.705 57.22C149.065 57.18 149.345 57.1467 149.545 57.12ZM145.745 60.28C146.292 60.1867 146.972 60.46 147.785 61.1C149.105 62.1267 149.305 63.26 148.385 64.5C147.998 65.0333 147.478 65.3667 146.825 65.5C146.172 65.6333 145.525 65.54 144.885 65.22C144.578 65.06 144.338 64.7733 144.165 64.36C143.992 63.96 143.905 63.48 143.905 62.92C143.905 62.32 144.092 61.7533 144.465 61.22C144.838 60.6867 145.265 60.3733 145.745 60.28ZM146.085 61.78C146.058 61.7667 146.018 61.7533 145.965 61.74C145.925 61.7267 145.898 61.72 145.885 61.72C145.872 61.7067 145.858 61.7 145.845 61.7C145.632 61.7533 145.452 62.02 145.305 62.5C145.158 62.98 145.152 63.3667 145.285 63.66C145.405 63.9533 145.625 64.1333 145.945 64.2C146.265 64.2667 146.578 64.2067 146.885 64.02C147.205 63.8333 147.418 63.5667 147.525 63.22C147.592 62.98 147.478 62.72 147.185 62.44C146.905 62.16 146.538 61.94 146.085 61.78ZM161.596 52.88C161.85 52.7467 162.063 52.7733 162.236 52.96C162.41 53.1467 162.51 53.46 162.536 53.9C162.576 54.5667 162.57 56.1733 162.516 58.72C162.476 61.2533 162.43 62.5733 162.376 62.68C162.256 62.9067 162.07 63.0267 161.816 63.04C161.576 63.0533 161.39 62.9533 161.256 62.74C161.11 62.5133 161.083 61.6 161.176 60C161.19 59.92 161.203 59.8 161.216 59.64C161.283 58.6 161.29 57.9933 161.236 57.82C161.196 57.6467 161.016 57.56 160.696 57.56C160.643 57.56 160.603 57.56 160.576 57.56C160.563 57.56 160.536 57.56 160.496 57.56C160.203 57.56 160.036 57.6133 159.996 57.72C159.956 57.8133 159.963 58.1733 160.016 58.8C160.016 58.8667 160.023 58.92 160.036 58.96C160.076 59.5067 160.056 59.8933 159.976 60.12C159.896 60.3333 159.723 60.48 159.456 60.56C159.096 60.6533 158.85 60.5133 158.716 60.14C158.663 59.9533 158.643 58.86 158.656 56.86C158.67 54.86 158.71 53.8133 158.776 53.72C158.923 53.5067 159.13 53.4067 159.396 53.42C159.663 53.42 159.836 53.5333 159.916 53.76C159.956 53.84 159.976 54.2667 159.976 55.04V56.18H160.476C160.516 56.18 160.576 56.18 160.656 56.18C160.976 56.18 161.156 56.1333 161.196 56.04C161.25 55.9467 161.27 55.6067 161.256 55.02C161.256 54.8867 161.256 54.78 161.256 54.7C161.23 53.9267 161.23 53.4533 161.256 53.28C161.296 53.1067 161.41 52.9733 161.596 52.88ZM153.676 54.2C153.876 54.1733 153.976 54.16 153.976 54.16C154.11 54.1333 154.33 54.2133 154.636 54.4C154.956 54.5733 155.243 54.7867 155.496 55.04C156.056 55.5867 156.376 56.1867 156.456 56.84C156.536 57.48 156.363 58.0133 155.936 58.44C155.616 58.7467 155.13 58.9133 154.476 58.94C153.836 58.9533 153.283 58.82 152.816 58.54C152.31 58.22 152.01 57.7333 151.916 57.08C151.823 56.4133 151.943 55.7933 152.276 55.22C152.61 54.6467 153.076 54.3067 153.676 54.2ZM154.316 55.9C153.996 55.74 153.736 55.7267 153.536 55.86C153.35 55.9933 153.243 56.26 153.216 56.66C153.176 57.0733 153.283 57.3667 153.536 57.54C153.79 57.7 154.116 57.6933 154.516 57.52C154.903 57.3467 155.076 57.0933 155.036 56.76C154.996 56.4133 154.756 56.1267 154.316 55.9Z" fill="black"/>
<path d="M181 93.5H164L166 113.5H179.5L181 93.5Z" fill="white"/>
<path d="M179.398 89.6937H162.663L164.704 86.8559V84.0181H179.398V86.8559L182.663 89.6937M181.031 92.937L179.806 114.018H165.929L163.888 92.937" stroke="black" stroke-width="1.7" stroke-linecap="round" stroke-linejoin="round"/>
<path d="M95.5 105.5L96.5 111L136.5 119.5L159 111L158 107.5L131.5 102L127 84.5L88 77.5L95.5 105.5Z" fill="white"/>
<path d="M41 102.15L63.2877 100.4L62.934 104.95L41 106V102.15Z" fill="white"/>
<path d="M50.9057 96.2V45.45L81.3302 22M54.7972 47.55V98.3M53.3821 39.85L82.7453 12.9M86.6368 20.6L84.1604 4.5L94.7736 1L100.08 16.4M103.264 20.6L116 26.55M85.2217 26.2L81.3302 39.85C83.6887 37.2833 90.7406 31.59 100.08 29.35C111.755 26.55 116.708 26.9 114.585 29.35C112.462 31.8 97.9575 39.5 85.2217 40.55M63.2877 100.4L41 102.15V106L62.934 104.95L63.2877 100.4Z" stroke="black" stroke-width="2" stroke-linecap="round" stroke-linejoin="round"/>
<path d="M95.6788 107.086L95.973 110.944C95.973 110.944 132.341 119.427 134.373 119.767C136.405 120.108 136.643 120.148 139.819 118.851C142.995 117.554 152.132 113.733 156.85 112.036M158.75 110.649L158.486 107.18L133.641 102.413M133.608 116.316L98.3718 107.971M137.136 116.548L156.162 109.581" stroke="black" stroke-width="2" stroke-linecap="round" stroke-linejoin="round"/>
<path d="M95.0764 104.21L88 77.1699L127.149 84.2138L134.377 113.248" stroke="black" stroke-width="2" stroke-linecap="round" stroke-linejoin="round"/>
</svg>
