<svg width="25" height="25" viewBox="0 0 25 25" fill="none" xmlns="http://www.w3.org/2000/svg">
<path d="M23.6288 2.43392C23.134 1.44439 1.61141 1.19699 1.61141 2.43392C1.61141 3.67085 1.36403 22.7196 1.61141 23.2144C1.8588 23.7092 23.134 23.4618 23.6288 23.2144C24.1236 22.967 24.1236 3.42345 23.6288 2.43392Z" stroke="#ADADAD" stroke-width="1.5"/>
<path d="M11.3552 9.8C12.4352 9.8 13.5052 10.75 13.5052 12V14.5H11.9952V12C11.9952 11.6 11.6952 11.3 11.2952 11.3C10.9252 11.3 10.6152 11.6 10.6152 12V12.01V14.5H9.09516V12.11C9.09516 11.57 8.83516 11.3 8.40516 11.3C8.00516 11.3 7.69516 11.6 7.69516 12.11V14.5H6.09516V9.9H7.69516V9.93C7.89516 9.85 8.13516 9.8 8.44516 9.8C8.97516 9.8 9.47516 10 9.86516 10.34C10.2552 10 10.7952 9.8 11.3552 9.8ZM17.6361 9.9H19.2361V14.92C19.2361 16.36 18.1961 17.52 16.6261 17.52H15.5361V15.91H16.6561C17.2861 15.91 17.6361 15.53 17.6361 14.92V14.47C17.4161 14.54 17.1661 14.6 16.8861 14.6C15.7461 14.6 14.7061 13.66 14.7061 12.37V9.9H16.2161V12.37C16.2161 12.79 16.5261 13.07 16.8661 13.07C17.3161 13.07 17.6361 12.76 17.6361 12.37V9.9Z" fill="#A5A5A5"/>
</svg>
