<svg width="156" height="54" viewBox="0 0 156 54" fill="none" xmlns="http://www.w3.org/2000/svg">
<path d="M11.7563 0.959996C12.3163 0.679997 13.0396 0.563331 13.9263 0.609997C14.813 0.609997 15.6063 0.773331 16.3063 1.1C16.8196 1.33333 17.7063 2.01 18.9663 3.13C20.273 4.20333 21.0896 4.97333 21.4163 5.44C21.883 6.14 22.0696 7.33 21.9763 9.01C21.9296 10.69 21.6263 12.23 21.0663 13.63C20.3196 15.31 18.6396 16.4067 16.0263 16.92C13.4596 17.3867 11.243 17.0133 9.37629 15.8C7.88295 14.7733 6.97295 13.2567 6.64629 11.25C6.31962 9.24333 6.62295 7.26 7.55629 5.3C8.53629 3.29333 9.93629 1.84666 11.7563 0.959996ZM15.7463 6.35C14.7663 5.69666 13.973 5.48666 13.3663 5.72C12.8063 5.95333 12.293 6.67666 11.8263 7.89C10.7996 10.4567 11.1963 11.88 13.0163 12.16C14.183 12.3467 15.233 12.09 16.1663 11.39C17.1463 10.69 17.6363 9.82666 17.6363 8.8C17.6363 8.00667 17.0063 7.19 15.7463 6.35ZM29.0463 23.92C31.473 23.5933 32.9896 24.0367 33.5963 25.25C34.203 26.5567 33.5963 27.6067 31.7763 28.4C31.543 28.4467 30.8196 28.54 29.6063 28.68C27.0863 28.8667 24.4963 29.1 21.8363 29.38C18.243 29.7533 14.2296 30.01 9.79629 30.15C5.40962 30.2433 2.93629 30.15 2.37629 29.87C1.67629 29.45 1.25629 28.9133 1.11629 28.26C0.976288 27.56 1.16295 26.93 1.67629 26.37C2.00295 26.0433 2.32962 25.8567 2.65629 25.81C2.98295 25.7633 4.03295 25.74 5.80629 25.74C11.2196 25.74 16.983 25.3667 23.0963 24.62C23.3763 24.5733 23.8663 24.5267 24.5663 24.48C25.313 24.3867 25.8263 24.3167 26.1063 24.27C27.3663 24.13 28.3463 24.0133 29.0463 23.92ZM15.7463 34.98C17.6596 34.6533 20.0396 35.61 22.8863 37.85C27.5063 41.4433 28.2063 45.41 24.9863 49.75C23.633 51.6167 21.813 52.7833 19.5263 53.25C17.2396 53.7167 14.9763 53.39 12.7363 52.27C11.663 51.71 10.823 50.7067 10.2163 49.26C9.60962 47.86 9.30629 46.18 9.30629 44.22C9.30629 42.12 9.95962 40.1367 11.2663 38.27C12.573 36.4033 14.0663 35.3067 15.7463 34.98ZM16.9363 40.23C16.843 40.1833 16.703 40.1367 16.5163 40.09C16.3763 40.0433 16.283 40.02 16.2363 40.02C16.1896 39.9733 16.143 39.95 16.0963 39.95C15.3496 40.1367 14.7196 41.07 14.2063 42.75C13.693 44.43 13.6696 45.7833 14.1363 46.81C14.5563 47.8367 15.3263 48.4667 16.4463 48.7C17.5663 48.9333 18.663 48.7233 19.7363 48.07C20.8563 47.4167 21.603 46.4833 21.9763 45.27C22.2096 44.43 21.813 43.52 20.7863 42.54C19.8063 41.56 18.523 40.79 16.9363 40.23ZM73.3268 9.08C74.2134 8.61333 74.9601 8.70666 75.5668 9.36C76.1734 10.0133 76.5234 11.11 76.6168 12.65C76.7568 14.9833 76.7334 20.6067 76.5468 29.52C76.4068 38.3867 76.2434 43.0067 76.0568 43.38C75.6368 44.1733 74.9834 44.5933 74.0968 44.64C73.2568 44.6867 72.6034 44.3367 72.1368 43.59C71.6234 42.7967 71.5301 39.6 71.8568 34C71.9034 33.72 71.9501 33.3 71.9968 32.74C72.2301 29.1 72.2534 26.9767 72.0668 26.37C71.9268 25.7633 71.2968 25.46 70.1768 25.46C69.9901 25.46 69.8501 25.46 69.7568 25.46C69.7101 25.46 69.6168 25.46 69.4768 25.46C68.4501 25.46 67.8668 25.6467 67.7268 26.02C67.5868 26.3467 67.6101 27.6067 67.7968 29.8C67.7968 30.0333 67.8201 30.22 67.8668 30.36C68.0068 32.2733 67.9368 33.6267 67.6568 34.42C67.3768 35.1667 66.7701 35.68 65.8368 35.96C64.5768 36.2867 63.7134 35.7967 63.2468 34.49C63.0601 33.8367 62.9901 30.01 63.0368 23.01C63.0834 16.01 63.2234 12.3467 63.4568 12.02C63.9701 11.2733 64.6934 10.9233 65.6268 10.97C66.5601 10.97 67.1668 11.3667 67.4468 12.16C67.5868 12.44 67.6568 13.9333 67.6568 16.64V20.63H69.4068C69.5468 20.63 69.7568 20.63 70.0368 20.63C71.1568 20.63 71.7868 20.4667 71.9268 20.14C72.1134 19.8133 72.1834 18.6233 72.1368 16.57C72.1368 16.1033 72.1368 15.73 72.1368 15.45C72.0434 12.7433 72.0434 11.0867 72.1368 10.48C72.2768 9.87333 72.6734 9.40666 73.3268 9.08ZM45.6068 13.7C46.3068 13.6067 46.6568 13.56 46.6568 13.56C47.1234 13.4667 47.8934 13.7467 48.9668 14.4C50.0868 15.0067 51.0901 15.7533 51.9768 16.64C53.9368 18.5533 55.0568 20.6533 55.3368 22.94C55.6168 25.18 55.0101 27.0467 53.5168 28.54C52.3968 29.6133 50.6934 30.1967 48.4068 30.29C46.1668 30.3367 44.2301 29.87 42.5968 28.89C40.8234 27.77 39.7734 26.0667 39.4468 23.78C39.1201 21.4467 39.5401 19.2767 40.7068 17.27C41.8734 15.2633 43.5068 14.0733 45.6068 13.7ZM47.8468 19.65C46.7268 19.09 45.8168 19.0433 45.1168 19.51C44.4634 19.9767 44.0901 20.91 43.9968 22.31C43.8568 23.7567 44.2301 24.7833 45.1168 25.39C46.0034 25.95 47.1468 25.9267 48.5468 25.32C49.9001 24.7133 50.5068 23.8267 50.3668 22.66C50.2268 21.4467 49.3868 20.4433 47.8468 19.65ZM111.962 0.959996C112.382 0.773329 112.918 0.749996 113.572 0.889997C114.272 0.983332 114.692 1.17 114.832 1.45C115.018 1.82333 115.205 5.11333 115.392 11.32C115.578 17.48 115.578 20.7933 115.392 21.26C115.205 21.7733 114.668 22.1233 113.782 22.31C112.942 22.45 112.288 22.3333 111.822 21.96C111.355 21.6333 111.075 21.05 110.982 20.21C110.888 19.3233 110.818 16.8733 110.772 12.86C110.678 7.77333 110.608 4.97333 110.562 4.46C110.468 3.66666 110.562 2.94333 110.842 2.29C111.122 1.59 111.495 1.14666 111.962 0.959996ZM90.6818 3.48C92.5952 2.96667 94.4618 3.22333 96.2818 4.25C98.1485 5.27666 99.4785 6.77 100.272 8.73C101.112 10.6433 101.182 12.51 100.482 14.33C99.8752 15.7767 99.2685 16.7567 98.6618 17.27C98.1018 17.7833 97.1452 18.1567 95.7918 18.39C94.9052 18.5767 94.2285 18.7167 93.7618 18.81C91.7085 19.2767 89.7952 18.81 88.0218 17.41C86.2952 16.01 85.4318 14.26 85.4318 12.16C85.4318 10.06 85.9218 8.19333 86.9018 6.56C87.9285 4.88 89.1885 3.85333 90.6818 3.48ZM93.0618 8.52C92.4552 8.33333 92.0818 8.26333 91.9418 8.31C91.8485 8.31 91.6618 8.42666 91.3818 8.66C90.9618 9.08 90.5885 9.78 90.2618 10.76C89.9352 11.6933 89.8185 12.37 89.9118 12.79C90.1918 13.8633 91.0318 14.4467 92.4318 14.54C93.8785 14.5867 95.0685 14.12 96.0018 13.14C96.5152 12.5333 96.4218 11.6933 95.7218 10.62C95.0685 9.54666 94.1818 8.84666 93.0618 8.52ZM98.2418 30.08C99.9685 29.9867 101.788 29.9867 103.702 30.08C105.662 30.1267 106.968 30.22 107.622 30.36C108.835 30.6867 109.628 31.2467 110.002 32.04C110.375 32.7867 110.655 34.3733 110.842 36.8C110.982 39.5067 110.772 41.2333 110.212 41.98C109.698 42.7267 108.252 43.2633 105.872 43.59C103.912 43.8233 102.488 44.01 101.602 44.15C100.762 44.29 100.038 44.4533 99.4318 44.64C98.8252 44.8267 98.4752 45.0133 98.3818 45.2C98.2885 45.3867 98.2418 45.6667 98.2418 46.04C98.2418 47.2533 98.5685 48 99.2218 48.28C99.8752 48.6067 101.275 48.7 103.422 48.56C106.828 48.28 109.022 48.2567 110.002 48.49C110.982 48.77 111.472 49.4467 111.472 50.52C111.472 51.4533 111.098 52.06 110.352 52.34C109.652 52.62 107.948 52.83 105.242 52.97C103.702 53.0633 102.535 53.11 101.742 53.11C100.948 53.1567 100.132 53.1333 99.2918 53.04C98.4985 52.9467 97.9152 52.8067 97.5418 52.62C97.1685 52.48 96.7485 52.2 96.2818 51.78C95.8618 51.36 95.5118 50.9167 95.2318 50.45C94.9985 49.9833 94.6485 49.2833 94.1818 48.35C92.7352 45.41 92.4552 43.38 93.3418 42.26C94.2752 41.0933 96.7952 40.3 100.902 39.88C103.982 39.5533 105.685 39.2267 106.012 38.9C106.152 38.76 106.198 38.2933 106.152 37.5C106.152 36.66 106.082 35.9133 105.942 35.26C105.895 34.9333 105.522 34.7233 104.822 34.63C104.122 34.49 102.768 34.4667 100.762 34.56C98.3818 34.6067 96.7952 34.49 96.0018 34.21C95.2085 33.93 94.8118 33.3467 94.8118 32.46C94.8118 31.62 95.0452 31.0367 95.5118 30.71C96.0252 30.3833 96.9352 30.1733 98.2418 30.08ZM152.521 9.99C153.501 9.47666 154.387 9.66333 155.181 10.55L155.811 11.18L155.671 26.93C155.624 37.3833 155.577 42.7033 155.531 42.89C155.344 43.3567 154.831 43.66 153.991 43.8C153.151 43.8933 152.451 43.7767 151.891 43.45C151.891 43.45 151.867 43.45 151.821 43.45C151.261 43.1233 150.934 42.26 150.841 40.86C150.794 39.4133 150.817 34.6067 150.911 26.44C150.911 26.02 150.911 25.6933 150.911 25.46C150.911 24.8067 150.934 23.8967 150.981 22.73C151.027 16.71 151.097 13.1867 151.191 12.16C151.331 11.0867 151.681 10.41 152.241 10.13C152.334 10.0833 152.427 10.0367 152.521 9.99ZM129.071 16.99C130.797 16.7567 132.664 16.64 134.671 16.64C136.724 16.64 137.937 16.78 138.311 17.06C139.104 17.5267 139.547 18.3667 139.641 19.58C139.734 20.7933 139.547 23.5 139.081 27.7C138.941 29.0533 138.801 30.6633 138.661 32.53C138.427 35.1433 138.147 36.8233 137.821 37.57C137.541 38.3167 136.934 38.7833 136.001 38.97C134.927 39.1567 134.157 38.8067 133.691 37.92C133.271 37.0333 133.177 35.7033 133.411 33.93C133.644 32.39 133.924 30.1033 134.251 27.07C134.297 26.6967 134.367 26.09 134.461 25.25C134.554 24.41 134.624 23.8733 134.671 23.64C134.671 23.5467 134.671 23.4067 134.671 23.22C134.811 22.1933 134.647 21.6333 134.181 21.54C133.714 21.4 131.987 21.4933 129.001 21.82C128.487 21.8667 128.091 21.89 127.811 21.89C126.411 22.03 125.431 21.9367 124.871 21.61C124.357 21.2833 124.147 20.63 124.241 19.65C124.381 18.7167 124.707 18.11 125.221 17.83C125.781 17.5033 127.064 17.2233 129.071 16.99Z" fill="black"/>
</svg>
