<svg width="20" height="20" viewBox="0 0 20 20" fill="none" xmlns="http://www.w3.org/2000/svg">
<path d="M17.7339 15.3533C17.444 16.0229 17.1009 16.6393 16.7034 17.206C16.1615 17.9786 15.7179 18.5133 15.376 18.8103C14.8459 19.2977 14.2781 19.5474 13.6699 19.5616C13.2334 19.5616 12.7069 19.4373 12.0941 19.1853C11.4792 18.9345 10.9142 18.8103 10.3975 18.8103C9.85566 18.8103 9.27453 18.9345 8.65293 19.1853C8.03039 19.4373 7.52888 19.5687 7.14543 19.5817C6.56229 19.6065 5.98104 19.3498 5.40085 18.8103C5.03054 18.4873 4.56736 17.9336 4.01249 17.1492C3.41716 16.3116 2.92771 15.3403 2.54427 14.2329C2.13362 13.0368 1.92776 11.8786 1.92776 10.7572C1.92776 9.47276 2.20532 8.36491 2.76125 7.43654C3.19817 6.69084 3.77942 6.10261 4.5069 5.67078C5.23439 5.23895 6.02043 5.0189 6.86694 5.00482C7.33012 5.00482 7.93752 5.14809 8.69233 5.42967C9.44501 5.71219 9.9283 5.85546 10.1402 5.85546C10.2986 5.85546 10.8355 5.68793 11.7457 5.35395C12.6063 5.04422 13.3328 4.91597 13.9279 4.96649C15.5404 5.09663 16.7519 5.7323 17.5576 6.87753C16.1154 7.75136 15.402 8.97527 15.4162 10.5454C15.4292 11.7683 15.8729 12.786 16.7448 13.5941C17.14 13.9691 17.5813 14.259 18.0722 14.4648C17.9658 14.7736 17.8534 15.0694 17.7339 15.3533ZM14.0355 0.800114C14.0355 1.75867 13.6853 2.65366 12.9873 3.48206C12.1449 4.46687 11.1261 5.03593 10.0212 4.94614C10.0071 4.83114 9.99893 4.71011 9.99893 4.58293C9.99893 3.66272 10.3995 2.67792 11.1109 1.8727C11.4661 1.46501 11.9178 1.12602 12.4656 0.8556C13.0121 0.589216 13.5292 0.441899 14.0154 0.416672C14.0296 0.544815 14.0355 0.672967 14.0355 0.800102V0.800114Z" fill="white"/>
</svg>
